<?xml version="1.0" encoding="UTF-8"?><svg xmlns="http://www.w3.org/2000/svg" xmlns:xlink="http://www.w3.org/1999/xlink" fill-opacity="1" color-rendering="auto" color-interpolation="auto" text-rendering="auto" stroke="black" stroke-linecap="square" width="416" stroke-miterlimit="10" shape-rendering="auto" stroke-opacity="1" fill="black" stroke-dasharray="none" font-weight="normal" stroke-width="1" height="308" font-family="'Dialog'" font-style="normal" stroke-linejoin="miter" font-size="12px" stroke-dashoffset="0" image-rendering="auto">
  <!--Generated by ySVG 2.5-->
  <defs id="genericDefs"/>
  <g>
    <defs id="defs1">
      <clipPath clipPathUnits="userSpaceOnUse" id="clipPath1">
        <path d="M0 0 L416 0 L416 308 L0 308 L0 0 Z"/>
      </clipPath>
      <clipPath clipPathUnits="userSpaceOnUse" id="clipPath2">
        <path d="M360 27 L776 27 L776 335 L360 335 L360 27 Z"/>
      </clipPath>
    </defs>
    <g fill="rgb(153,204,255)" text-rendering="geometricPrecision" shape-rendering="geometricPrecision" transform="matrix(1,0,0,1,-360,-27)" stroke="rgb(153,204,255)">
      <rect x="375.3" width="197.8" height="201.3333" y="86.2529" clip-path="url(#clipPath2)" stroke="none"/>
    </g>
    <g text-rendering="geometricPrecision" stroke-miterlimit="1.45" shape-rendering="geometricPrecision" transform="matrix(1,0,0,1,-360,-27)" stroke-linecap="butt">
      <rect fill="none" x="375.3" width="197.8" height="201.3333" y="86.2529" clip-path="url(#clipPath2)"/>
      <text x="446.1141" font-size="16px" y="105.0497" clip-path="url(#clipPath2)" font-family="'Samim'" stroke="none" xml:space="preserve">رابط سی</text>
      <text x="418.1688" font-size="16px" y="129.6591" clip-path="url(#clipPath2)" font-family="'Samim'" stroke="none" xml:space="preserve">کتابخانهٔ داینامیک</text>
      <text x="425.6258" font-size="16px" y="154.2685" clip-path="url(#clipPath2)" font-family="'Samim'" stroke="none" xml:space="preserve">(کد غیر شی‌گرا)</text>
    </g>
    <g fill="rgb(153,204,255)" text-rendering="geometricPrecision" shape-rendering="geometricPrecision" transform="matrix(1,0,0,1,-360,-27)" stroke="rgb(153,204,255)">
      <rect x="393.7" width="161" height="93" y="178.7529" clip-path="url(#clipPath2)" stroke="none"/>
    </g>
    <g text-rendering="geometricPrecision" stroke-miterlimit="1.45" shape-rendering="geometricPrecision" transform="matrix(1,0,0,1,-360,-27)" stroke-linecap="butt">
      <rect fill="none" x="393.7" width="161" height="93" y="178.7529" clip-path="url(#clipPath2)"/>
      <text x="412.2703" font-size="16px" y="205.1357" clip-path="url(#clipPath2)" font-family="'Samim'" stroke="none" xml:space="preserve">رابط سی‌پلاس‌پلاس</text>
      <text x="418.1688" font-size="16px" y="229.7451" clip-path="url(#clipPath2)" font-family="'Samim'" stroke="none" xml:space="preserve">کتابخانهٔ داینامیک</text>
      <text x="438.4539" font-size="16px" y="254.3544" clip-path="url(#clipPath2)" font-family="'Samim'" stroke="none" xml:space="preserve">(کد شی‌گرا)</text>
    </g>
    <g fill="rgb(153,204,255)" text-rendering="geometricPrecision" shape-rendering="geometricPrecision" transform="matrix(1,0,0,1,-360,-27)" stroke="rgb(153,204,255)">
      <rect x="674.3" width="86" height="49" y="42.0195" clip-path="url(#clipPath2)" stroke="none"/>
    </g>
    <g text-rendering="geometricPrecision" stroke-miterlimit="1.45" shape-rendering="geometricPrecision" transform="matrix(1,0,0,1,-360,-27)" stroke-linecap="butt">
      <rect fill="none" x="674.3" width="86" height="49" y="42.0195" clip-path="url(#clipPath2)"/>
      <text x="704.4992" font-size="16px" y="71.0117" clip-path="url(#clipPath2)" font-family="'Samim'" stroke="none" xml:space="preserve">جاوا</text>
    </g>
    <g fill="rgb(153,204,255)" text-rendering="geometricPrecision" shape-rendering="geometricPrecision" transform="matrix(1,0,0,1,-360,-27)" stroke="rgb(153,204,255)">
      <rect x="674.3" width="86" height="49" y="270.5195" clip-path="url(#clipPath2)" stroke="none"/>
    </g>
    <g text-rendering="geometricPrecision" stroke-miterlimit="1.45" shape-rendering="geometricPrecision" transform="matrix(1,0,0,1,-360,-27)" stroke-linecap="butt">
      <rect fill="none" x="674.3" width="86" height="49" y="270.5195" clip-path="url(#clipPath2)"/>
      <text x="697.7726" font-size="16px" y="299.5117" clip-path="url(#clipPath2)" font-family="'Samim'" stroke="none" xml:space="preserve">پایتون</text>
    </g>
    <g fill="rgb(153,204,255)" text-rendering="geometricPrecision" shape-rendering="geometricPrecision" transform="matrix(1,0,0,1,-360,-27)" stroke="rgb(153,204,255)">
      <rect x="674.3" width="86" height="49" y="194.3529" clip-path="url(#clipPath2)" stroke="none"/>
    </g>
    <g text-rendering="geometricPrecision" stroke-miterlimit="1.45" shape-rendering="geometricPrecision" transform="matrix(1,0,0,1,-360,-27)" stroke-linecap="butt">
      <rect fill="none" x="674.3" width="86" height="49" y="194.3529" clip-path="url(#clipPath2)"/>
      <text x="697.0344" font-size="16px" y="223.345" clip-path="url(#clipPath2)" font-family="'Samim'" stroke="none" xml:space="preserve">گولنگ</text>
    </g>
    <g fill="rgb(153,204,255)" text-rendering="geometricPrecision" shape-rendering="geometricPrecision" transform="matrix(1,0,0,1,-360,-27)" stroke="rgb(153,204,255)">
      <rect x="674.3" width="86" height="49" y="118.1862" clip-path="url(#clipPath2)" stroke="none"/>
    </g>
    <g text-rendering="geometricPrecision" stroke-miterlimit="1.45" shape-rendering="geometricPrecision" transform="matrix(1,0,0,1,-360,-27)" stroke-linecap="butt">
      <rect fill="none" x="674.3" width="86" height="49" y="118.1862" clip-path="url(#clipPath2)"/>
      <text x="698.3195" font-size="16px" y="147.1784" clip-path="url(#clipPath2)" font-family="'Samim'" stroke="none" xml:space="preserve">فرترن</text>
      <path fill="none" d="M573.1 186.9195 L625.2 186.9195 L625.2 66.5195 L663.3 66.5195" clip-path="url(#clipPath2)"/>
      <path d="M674.3 66.5195 L662.3 60.5195 L662.3 72.5195 Z" clip-path="url(#clipPath2)" stroke="none"/>
      <path fill="none" d="M573.1 186.9195 L625.2 186.9195 L625.2 295.0195 L663.3 295.0195" clip-path="url(#clipPath2)"/>
      <path d="M674.3 295.0195 L662.3 289.0195 L662.3 301.0195 Z" clip-path="url(#clipPath2)" stroke="none"/>
      <path fill="none" d="M573.1 186.9195 L624.4 186.9195 L624.4 218.8529 L663.3 218.8529" clip-path="url(#clipPath2)"/>
      <path d="M674.3 218.8529 L662.3 212.8529 L662.3 224.8529 Z" clip-path="url(#clipPath2)" stroke="none"/>
      <path fill="none" d="M573.1 186.9195 L625.2 186.9195 L625.2 142.6862 L663.3 142.6862" clip-path="url(#clipPath2)"/>
      <path d="M674.3 142.6862 L662.3 136.6862 L662.3 148.6862 Z" clip-path="url(#clipPath2)" stroke="none"/>
    </g>
  </g>
</svg>
