<svg id="Layer_1" data-name="Layer 1" xmlns="http://www.w3.org/2000/svg" viewBox="0 0 70.7 70.7"><defs><style>.cls-1{fill:#b12725;}.cls-2{fill:#58595b;}</style></defs><title>icon-compatabilitylists</title><path class="cls-1" d="M45.5,33.7l-7.2-7.2,3.4-3.4a.9.9,0,0,0,0-1.3l-7-7a15.3,15.3,0,0,0-18.8-2.2L7.5,4.3a.9.9,0,0,0-1.3,0L2.5,8a.9.9,0,0,0,0,1.3l8.4,8.4a15.3,15.3,0,0,0,2.2,18.8l7,7a.9.9,0,0,0,1.3,0l3.2-3.2,7.2,7.2a.9.9,0,0,0,1.3,0l2.2-2.2a.9.9,0,0,0,0-1.3l-7.2-7.2L34.9,30l7.2,7.2a.9.9,0,0,0,1.3,0L45.5,35a.9.9,0,0,0,0-1.3Z" transform="translate(-2.3 -4)"/><path class="cls-2" d="M72.7,69.4l-9-9a15.3,15.3,0,0,0-2.2-18.8l-7-7a.9.9,0,0,0-1.3,0l-3.4,3.4,7,7a.9.9,0,0,1,0,1.3l-2.2,2.2a.9.9,0,0,1-1.3,0l-7-7-6.7,6.7,7,7a.9.9,0,0,1,0,1.3l-2.2,2.2a.9.9,0,0,1-1.3,0l-7-7-3.2,3.2a.9.9,0,0,0,0,1.3l7,7a15.3,15.3,0,0,0,18.8,2.2l9,9a.9.9,0,0,0,1.3,0l3.7-3.7A.9.9,0,0,0,72.7,69.4Z" transform="translate(-2.3 -4)"/></svg>