<?xml version="1.0" encoding="UTF-8" standalone="no"?>
<!-- Created with Inkscape (http://www.inkscape.org/) -->

<svg
   xmlns:dc="http://purl.org/dc/elements/1.1/"
   xmlns:cc="http://creativecommons.org/ns#"
   xmlns:rdf="http://www.w3.org/1999/02/22-rdf-syntax-ns#"
   xmlns:svg="http://www.w3.org/2000/svg"
   xmlns="http://www.w3.org/2000/svg"
   xmlns:sodipodi="http://sodipodi.sourceforge.net/DTD/sodipodi-0.dtd"
   xmlns:inkscape="http://www.inkscape.org/namespaces/inkscape"
   width="800"
   height="400"
   viewBox="0 0 211.66666 105.83334"
   version="1.1"
   id="svg8"
   inkscape:version="0.92.5 (2060ec1f9f, 2020-04-08)"
   sodipodi:docname="pimpl.svg">
  <defs
     id="defs2">
    <style
       id="style4768">.cls-1{fill:#b12725;}.cls-2{fill:#58595b;}</style>
  </defs>
  <sodipodi:namedview
     id="base"
     pagecolor="#ffffff"
     bordercolor="#666666"
     borderopacity="1.0"
     inkscape:pageopacity="0.0"
     inkscape:pageshadow="2"
     inkscape:zoom="0.7"
     inkscape:cx="480.03767"
     inkscape:cy="155.65619"
     inkscape:document-units="mm"
     inkscape:current-layer="layer1"
     showgrid="false"
     units="px"
     inkscape:window-width="1600"
     inkscape:window-height="837"
     inkscape:window-x="1600"
     inkscape:window-y="0"
     inkscape:window-maximized="1" />
  <metadata
     id="metadata5">
    <rdf:RDF>
      <cc:Work
         rdf:about="">
        <dc:format>image/svg+xml</dc:format>
        <dc:type
           rdf:resource="http://purl.org/dc/dcmitype/StillImage" />
        <dc:title></dc:title>
      </cc:Work>
    </rdf:RDF>
  </metadata>
  <g
     inkscape:label="Layer 1"
     inkscape:groupmode="layer"
     id="layer1"
     transform="translate(0,-191.16665)">
    <path
       style="fill:#ffcc99;stroke-width:1.02491415"
       inkscape:connector-curvature="0"
       class="cls-1"
       d="m 47.262173,242.17149 -7.379382,-7.37939 3.484712,-3.4847 a 0.92242269,0.92242269 0 0 0 0,-1.33239 L 36.1931,222.80061 A 15.681186,15.681186 0 0 0 16.924715,220.5458 l -8.6092786,-8.50679 a 0.92242269,0.92242269 0 0 0 -1.332389,0 l -3.792182,3.79218 a 0.92242269,0.92242269 0 0 0 0,1.33239 l 8.6092786,8.60928 a 15.681186,15.681186 0 0 0 2.254811,19.26838 l 7.174399,7.1744 a 0.92242269,0.92242269 0 0 0 1.332389,0 l 3.279725,-3.27972 7.379381,7.37938 a 0.92242269,0.92242269 0 0 0 1.332389,0 l 2.254811,-2.25481 a 0.92242269,0.92242269 0 0 0 0,-1.33239 l -7.379382,-7.37938 6.969416,-6.96942 7.37938,7.37938 a 0.92242269,0.92242269 0 0 0 1.33239,0 l 2.15232,-2.25481 a 0.92242269,0.92242269 0 0 0 0,-1.33238 z"
       id="path4774" />
    <path
       style="fill:#58595b;stroke-width:1.02491415"
       inkscape:connector-curvature="0"
       class="cls-2"
       d="m 75.139833,278.76092 -9.22422,-9.22423 a 15.681186,15.681186 0 0 0 -2.25481,-19.26838 l -7.1744,-7.1744 a 0.92242269,0.92242269 0 0 0 -1.33239,0 l -3.48471,3.48471 7.1744,7.17439 a 0.92242269,0.92242269 0 0 1 0,1.33239 l -2.25481,2.25481 a 0.92242269,0.92242269 0 0 1 -1.33239,0 l -7.1744,-7.17439 -6.86692,6.86692 7.1744,7.1744 a 0.92242269,0.92242269 0 0 1 0,1.33239 l -2.25482,2.25481 a 0.92242269,0.92242269 0 0 1 -1.33238,0 l -7.174403,-7.1744 -3.279725,3.27972 a 0.92242269,0.92242269 0 0 0 0,1.33239 l 7.174398,7.1744 a 15.681186,15.681186 0 0 0 19.26839,2.25481 l 9.22422,9.22423 a 0.92242269,0.92242269 0 0 0 1.33239,0 l 3.79218,-3.79218 a 0.92242269,0.92242269 0 0 0 0,-1.33239 z"
       id="path4776" />
    <text
       xml:space="preserve"
       style="font-style:normal;font-weight:normal;font-size:10.58333302px;line-height:1.25;font-family:sans-serif;letter-spacing:0px;word-spacing:0px;fill:#000000;fill-opacity:1;stroke:none;stroke-width:0.26458332"
       x="13.043578"
       y="237.1142"
       id="text4760"><tspan
         sodipodi:role="line"
         id="tspan4758"
         x="13.043578"
         y="237.1142"
         style="font-style:normal;font-variant:normal;font-weight:normal;font-stretch:normal;font-family:'Abyssinica SIL';-inkscape-font-specification:'Abyssinica SIL';stroke-width:0.26458332">2.1.4</tspan></text>
    <path
       id="path4810"
       d="m 182.50055,242.17149 -7.37938,-7.37939 3.48471,-3.4847 a 0.92242269,0.92242269 0 0 0 0,-1.33239 l -7.1744,-7.1744 a 15.681186,15.681186 0 0 0 -19.26839,-2.25481 l -8.60927,-8.50679 a 0.92242269,0.92242269 0 0 0 -1.33239,0 l -3.79218,3.79218 a 0.92242269,0.92242269 0 0 0 0,1.33239 l 8.60927,8.60928 a 15.681186,15.681186 0 0 0 2.25481,19.26838 l 7.1744,7.1744 a 0.92242269,0.92242269 0 0 0 1.33239,0 l 3.27973,-3.27972 7.37938,7.37938 a 0.92242269,0.92242269 0 0 0 1.33239,0 l 2.25481,-2.25481 a 0.92242269,0.92242269 0 0 0 0,-1.33239 l -7.37938,-7.37938 6.96941,-6.96942 7.37938,7.37938 a 0.92242269,0.92242269 0 0 0 1.33239,0 l 2.15232,-2.25481 a 0.92242269,0.92242269 0 0 0 0,-1.33238 z"
       class="cls-1"
       inkscape:connector-curvature="0"
       style="fill:#cccc99;stroke-width:1.02491415" />
    <path
       id="path4812"
       d="m 210.37822,278.76092 -9.22423,-9.22423 a 15.681186,15.681186 0 0 0 -2.25481,-19.26838 l -7.1744,-7.1744 a 0.92242269,0.92242269 0 0 0 -1.33239,0 l -3.48471,3.48471 7.1744,7.17439 a 0.92242269,0.92242269 0 0 1 0,1.33239 l -2.25481,2.25481 a 0.92242269,0.92242269 0 0 1 -1.33239,0 l -7.1744,-7.17439 -6.86692,6.86692 7.1744,7.1744 a 0.92242269,0.92242269 0 0 1 0,1.33239 l -2.25481,2.25481 a 0.92242269,0.92242269 0 0 1 -1.33239,0 l -7.1744,-7.1744 -3.27973,3.27972 a 0.92242269,0.92242269 0 0 0 0,1.33239 l 7.1744,7.1744 a 15.681186,15.681186 0 0 0 19.26839,2.25481 l 9.22422,9.22423 a 0.92242269,0.92242269 0 0 0 1.33239,0 l 3.79219,-3.79218 a 0.92242269,0.92242269 0 0 0 0,-1.33239 z"
       class="cls-2"
       inkscape:connector-curvature="0"
       style="fill:#58595b;stroke-width:1.02491415" />
    <g
       id="Ebene_1"
       transform="matrix(-0.06767687,0,0,-0.06767687,135.90043,259.4744)"
       style="fill:#cc3300">
			<polygon
   id="path2050"
   points="233.17773,141.73242 902.25049,141.73242 902.25049,222.98633 233.17773,222.98633 233.17773,364.71875 0,182.35938 233.17773,0 "
   style="fill:#cc3300" />

		</g>
    <text
       id="text4842"
       y="241.38916"
       x="82.092331"
       style="font-style:normal;font-weight:normal;font-size:10.58333302px;line-height:1.25;font-family:sans-serif;letter-spacing:0px;word-spacing:0px;fill:#000000;fill-opacity:1;stroke:none;stroke-width:0.26458332"
       xml:space="preserve"><tspan
         style="font-style:normal;font-variant:normal;font-weight:normal;font-stretch:normal;font-family:'Abyssinica SIL';-inkscape-font-specification:'Abyssinica SIL';stroke-width:0.26458332"
         y="241.38916"
         x="82.092331"
         id="tspan4840"
         sodipodi:role="line">PIMPL</tspan></text>
    <text
       id="text4808"
       y="237.82866"
       x="148.12447"
       style="font-style:normal;font-weight:normal;font-size:10.58333302px;line-height:1.25;font-family:sans-serif;letter-spacing:0px;word-spacing:0px;fill:#000000;fill-opacity:1;stroke:none;stroke-width:0.26458332"
       xml:space="preserve"><tspan
         style="font-style:normal;font-variant:normal;font-weight:normal;font-stretch:normal;font-family:'Abyssinica SIL';-inkscape-font-specification:'Abyssinica SIL';stroke-width:0.26458332"
         y="237.82866"
         x="148.12447"
         id="tspan4806"
         sodipodi:role="line">2.2.1</tspan></text>
  </g>
</svg>
